<?xml version="1.0" encoding="UTF-8" standalone="no"?>
<svg
   version="1.1"
   id="Calque_1"
   x="0px"
   y="0px"
   viewBox="0 0 132 193"
   enable-background="new 0 0 132 193"
   xml:space="preserve"
   sodipodi:docname="logo_eracom.svg"
   inkscape:version="1.3.1 (9b9bdc1480, 2023-11-25, custom)"
   xmlns:inkscape="http://www.inkscape.org/namespaces/inkscape"
   xmlns:sodipodi="http://sodipodi.sourceforge.net/DTD/sodipodi-0.dtd"
   xmlns="http://www.w3.org/2000/svg"
   xmlns:svg="http://www.w3.org/2000/svg"><defs
     id="defs2" /><sodipodi:namedview
     id="namedview2"
     pagecolor="#ffffff"
     bordercolor="#000000"
     borderopacity="0.25"
     inkscape:showpageshadow="2"
     inkscape:pageopacity="0.0"
     inkscape:pagecheckerboard="0"
     inkscape:deskcolor="#d1d1d1"
     showgrid="false"
     inkscape:zoom="2.611399"
     inkscape:cx="66.056548"
     inkscape:cy="96.5"
     inkscape:window-width="1366"
     inkscape:window-height="704"
     inkscape:window-x="0"
     inkscape:window-y="0"
     inkscape:window-maximized="1"
     inkscape:current-layer="Calque_1" /><g
     id="g2"
     style="fill:#000000"><rect
       x="13.41"
       y="1"
       fill="#1D1D1B"
       width="106.83"
       height="21.48"
       id="rect1"
       style="fill:#000000" /><g
       id="g1"
       style="fill:#000000"><path
         fill="#1D1D1B"
         d="M130.73 129.71H27.7c0.82 22.19 19.45 39.46 42.19 39.46c17.54 0 30.42-8.77 37.81-19.73l18.08 14.52 c-13.97 18.08-32.88 26.58-55.9 26.58c-39.46 0-68.5-27.4-68.5-68.23c0-40.55 29.05-68.78 67.13-68.78 c38.36 0 62.47 26.03 62.47 67.4C131 123.68 131 126.7 130.73 129.71z M104.97 110.53c-0.55-20.55-12.6-36.72-36.44-36.72 c-22.19 0-39.18 16.44-40.83 36.72H104.97z"
         id="path1"
         style="fill:#000000" /></g></g></svg>
