<?xml version="1.0" encoding="utf-8"?>
<!-- Generator: Adobe Illustrator 28.2.0, SVG Export Plug-In . SVG Version: 6.00 Build 0)  -->
<svg version="1.1" id="Texte_catus" xmlns="http://www.w3.org/2000/svg" xmlns:xlink="http://www.w3.org/1999/xlink" x="0px"
	 y="0px" viewBox="0 0 406.4 865.6" style="enable-background:new 0 0 406.4 865.6;" xml:space="preserve">
<style type="text/css">
	.st0{font-family:'ArialMT';}
	.st1{font-size:24px;}
</style>
<text transform="matrix(0.3261 -0.9453 0.9453 0.3261 47.4857 281.2429)" class="st0 st1">S</text>
<text transform="matrix(0.3518 -0.9361 0.9361 0.3518 51.3457 270.0223)" class="st0 st1">o</text>
<text transform="matrix(0.3767 -0.9263 0.9263 0.3767 55.8956 257.9522)" class="st0 st1">y</text>
<text transform="matrix(0.4047 -0.9145 0.9145 0.4047 62.1356 242.9124)" class="st0 st1">l</text>
<text transform="matrix(0.424 -0.9056 0.9056 0.424 64.3457 237.8123)" class="st0 st1">o</text>
<text transform="matrix(0.4622 -0.8868 0.8868 0.4622 72.1056 221.4625)" class="st0 st1">q</text>
<text transform="matrix(0.4898 -0.8718 0.8718 0.4898 78.2957 209.6024)" class="st0 st1">u</text>
<text transform="matrix(0.5159 -0.8566 0.8566 0.5159 84.7256 198.1828)" class="st0 st1">e</text>
<text transform="matrix(0.559 -0.8291 0.8291 0.559 93.4656 183.7029)" class="st0 st1">m</text>
<text transform="matrix(0.5915 -0.8063 0.8063 0.5915 104.6356 167.2727)" class="st0 st1">e</text>
<text transform="matrix(0.6255 -0.7802 0.7802 0.6255 114.7356 153.6729)" class="st0 st1">e</text>
<text transform="matrix(0.6504 -0.7596 0.7596 0.6504 122.1556 144.3923)" class="st0 st1">n</text>
<text transform="matrix(0.6725 -0.7401 0.7401 0.6725 130.7756 134.3726)" class="st0 st1">s</text>
<text transform="matrix(0.6929 -0.721 0.721 0.6929 137.0756 127.4023)" class="st0 st1">e</text>
<text transform="matrix(0.7167 -0.6974 0.6974 0.7167 145.3157 118.8125)" class="st0 st1">ñ</text>
<text transform="matrix(0.7409 -0.6716 0.6716 0.7409 154.7457 109.6326)" class="st0 st1">ó</text>
<text transform="matrix(0.7792 -0.6267 0.6267 0.7792 168.1357 97.5426)" class="st0 st1">m</text>
<text transform="matrix(0.801 -0.5986 0.5986 0.801 183.7156 85.1823)" class="st0 st1">i</text>
<text transform="matrix(0.8253 -0.5647 0.5647 0.8253 192.1656 78.8924)" class="st0 st1">p</text>
<text transform="matrix(0.8452 -0.5345 0.5345 0.8452 203.3056 71.2824)" class="st0 st1">a</text>
<text transform="matrix(0.8642 -0.5032 0.5032 0.8642 212.9557 65.1625)" class="st0 st1">d</text>
<text transform="matrix(0.8798 -0.4753 0.4753 0.8798 224.5756 58.4424)" class="st0 st1">r</text>
<text transform="matrix(0.8934 -0.4493 0.4493 0.8934 231.1356 54.8525)" class="st0 st1">e</text>
<text transform="matrix(0.9157 -0.4018 0.4018 0.9157 246.3057 47.3725)" class="st0 st1">E</text>
<text transform="matrix(0.9265 -0.3762 0.3762 0.9265 257.0457 42.7024)" class="st0 st1">l</text>
<text transform="matrix(0.9433 -0.332 0.332 0.9433 266.8157 38.7525)" class="st0 st1">q</text>
<text transform="matrix(0.9571 -0.2897 0.2897 0.9571 279.4056 34.3225)" class="st0 st1">u</text>
<text transform="matrix(0.9688 -0.248 0.248 0.9688 291.8856 30.5524)" class="st0 st1">e</text>
<text transform="matrix(0.9825 -0.1865 0.1865 0.9825 308.2756 26.4924)" class="st0 st1">n</text>
<text transform="matrix(0.9904 -0.1385 0.1385 0.9904 321.1656 24.0424)" class="st0 st1">o</text>
<text transform="matrix(0.9977 -6.818942e-02 6.818942e-02 0.9977 339.0056 21.7024)" class="st0 st1">q</text>
<text transform="matrix(0.9999 -1.483476e-02 1.483476e-02 0.9999 352.2756 20.7924)" class="st0 st1">u</text>
<text transform="matrix(0.9997 2.390873e-02 -2.390873e-02 0.9997 365.3257 20.6724)" class="st0 st1">i</text>
<text transform="matrix(0.9982 6.017748e-02 -6.017748e-02 0.9982 370.7957 20.7425)" class="st0 st1">e</text>
<text transform="matrix(1.553280e-02 0.9999 -0.9999 1.553280e-02 381.1259 21.5924)" class="st0 st1">r</text>
<text transform="matrix(1.553280e-02 0.9999 -0.9999 1.553280e-02 381.2352 29.2125)" class="st0 st1">e</text>
<text transform="matrix(1.553280e-02 0.9999 -0.9999 1.553280e-02 381.5048 46.3324)" class="st0 st1">a</text>
<text transform="matrix(1.553280e-02 0.9999 -0.9999 1.553280e-02 381.7665 62.9724)" class="st0 st1">s</text>
<text transform="matrix(1.553280e-02 0.9999 -0.9999 1.553280e-02 381.9149 72.4624)" class="st0 st1">u</text>
<text transform="matrix(1.553280e-02 0.9999 -0.9999 1.553280e-02 382.1962 90.7924)" class="st0 st1">p</text>
<text transform="matrix(1.553280e-02 0.9999 -0.9999 1.553280e-02 382.4149 104.4525)" class="st0 st1">a</text>
<text transform="matrix(1.553280e-02 0.9999 -0.9999 1.553280e-02 382.5966 115.9425)" class="st0 st1">t</text>
<text transform="matrix(1.553280e-02 0.9999 -0.9999 1.553280e-02 382.7157 123.8624)" class="st0 st1">r</text>
<text transform="matrix(1.553280e-02 0.9999 -0.9999 1.553280e-02 382.8466 131.8125)" class="st0 st1">i</text>
<text transform="matrix(1.553280e-02 0.9999 -0.9999 1.553280e-02 382.9247 137.4425)" class="st0 st1">a</text>
<text transform="matrix(1.553280e-02 0.9999 -0.9999 1.553280e-02 383.1063 148.9924)" class="st0 st1">,</text>
<text transform="matrix(1.553280e-02 0.9999 -0.9999 1.553280e-02 383.2665 159.0524)" class="st0 st1">n</text>
<text transform="matrix(1.553280e-02 0.9999 -0.9999 1.553280e-02 383.4755 172.3725)" class="st0 st1">o</text>
<text transform="matrix(1.553280e-02 0.9999 -0.9999 1.553280e-02 383.7548 190.6325)" class="st0 st1">q</text>
<text transform="matrix(1.553280e-02 0.9999 -0.9999 1.553280e-02 383.9657 204.1624)" class="st0 st1">u</text>
<text transform="matrix(1.553280e-02 0.9999 -0.9999 1.553280e-02 384.1708 217.3709)" class="st0 st1">i</text>
<text transform="matrix(1.553280e-02 0.9999 -0.9999 1.553280e-02 384.2665 222.9924)" class="st0 st1">e</text>
<text transform="matrix(1.553280e-02 0.9999 -0.9999 1.553280e-02 384.4559 235.0324)" class="st0 st1">r</text>
<text transform="matrix(1.553280e-02 0.9999 -0.9999 1.553280e-02 384.5653 242.6225)" class="st0 st1">e</text>
<text transform="matrix(1.553280e-02 0.9999 -0.9999 1.553280e-02 384.8348 259.7424)" class="st0 st1">a</text>
<text transform="matrix(1.553280e-02 0.9999 -0.9999 1.553280e-02 385.0966 276.3925)" class="st0 st1">s</text>
<text transform="matrix(1.553280e-02 0.9999 -0.9999 1.553280e-02 385.245 285.9124)" class="st0 st1">u</text>
<text transform="matrix(1.553280e-02 0.9999 -0.9999 1.553280e-02 385.536 304.2025)" class="st0 st1">m</text>
<text transform="matrix(-0.9659 0.2588 -0.2588 -0.9659 384.3063 322.9025)" class="st0 st1">a</text>
<text transform="matrix(-0.6538 0.7567 -0.7567 -0.6538 367.8354 329.5127)" class="st0 st1">d</text>
<text transform="matrix(-0.4808 0.8768 -0.8768 -0.4808 358.0866 341.8123)" class="st0 st1">r</text>
<text transform="matrix(-0.389 0.9213 -0.9213 -0.389 353.9049 349.3824)" class="st0 st1">e</text>
<text transform="matrix(-0.3097 0.9508 -0.9508 -0.3097 347.3054 366.0125)" class="st0 st1">S</text>
<text transform="matrix(-0.3123 0.95 -0.95 -0.3123 343.6854 377.3726)" class="st0 st1">o</text>
<text transform="matrix(-0.4764 0.8792 -0.8792 -0.4764 340.1848 389.2223)" class="st0 st1">y</text>
<text transform="matrix(0.1012 -0.9949 0.9949 0.1012 332.7456 398.2321)" class="st0 st1">A</text>
<text transform="matrix(6.993062e-02 -0.9976 0.9976 6.993062e-02 334.2357 383.8123)" class="st0 st1">m</text>
<text transform="matrix(4.780376e-02 -0.9989 0.9989 4.780376e-02 335.5857 363.9323)" class="st0 st1">é</text>
<text transform="matrix(3.524829e-02 -0.9994 0.9994 3.524829e-02 336.1456 351.942)" class="st0 st1">r</text>
<text transform="matrix(2.704936e-02 -0.9996 0.9996 2.704936e-02 336.4156 344.0527)" class="st0 st1">i</text>
<text transform="matrix(1.745241e-02 -0.9998 0.9998 1.745241e-02 336.5757 338.4826)" class="st0 st1">c</text>
<text transform="matrix(4.712313e-03 -1 1 4.712313e-03 336.7656 327.7823)" class="st0 st1">a</text>
<text transform="matrix(-1.378768e-02 -0.9999 0.9999 -1.378768e-02 336.7957 311.1827)" class="st0 st1">L</text>
<text transform="matrix(-2.635146e-02 -0.9997 0.9997 -2.635146e-02 336.6456 299.9021)" class="st0 st1">a</text>
<text transform="matrix(-3.699259e-02 -0.9993 0.9993 -3.699259e-02 336.3257 288.4721)" class="st0 st1">t</text>
<text transform="matrix(-4.431686e-02 -0.999 0.999 -4.431686e-02 336.0356 280.5723)" class="st0 st1">i</text>
<text transform="matrix(-5.460159e-02 -0.9985 0.9985 -5.460159e-02 335.8057 275.0021)" class="st0 st1">n</text>
<text transform="matrix(-6.818948e-02 -0.9977 0.9977 -6.818948e-02 335.0757 261.7422)" class="st0 st1">a</text>
<text transform="matrix(-8.854664e-02 -0.9961 0.9961 -8.854664e-02 333.9157 245.222)" class="st0 st1">U</text>
<text transform="matrix(-0.1045 -0.9945 0.9945 -0.1045 332.5356 229.812)" class="st0 st1">n</text>
<text transform="matrix(-0.1253 -0.9921 0.9921 -0.1253 330.5757 211.5726)" class="st0 st1">p</text>
<text transform="matrix(-0.1406 -0.9901 0.9901 -0.1406 328.8657 198.0831)" class="st0 st1">u</text>
<text transform="matrix(-0.1514 -0.9885 0.9885 -0.1514 326.9857 184.9923)" class="st0 st1">e</text>
<text transform="matrix(-0.1889 -0.982 0.982 -0.1889 325.1457 172.8818)" class="st0 st1">b</text>
<text transform="matrix(-0.2341 -0.9722 0.9722 -0.2341 322.3957 159.0316)" class="st0 st1">l</text>
<text transform="matrix(-0.3015 -0.9535 0.9535 -0.3015 321.0256 152.7816)" class="st0 st1">o</text>
<text transform="matrix(-0.5141 -0.8577 0.8577 -0.5141 314.0157 133.3633)" class="st0 st1">s</text>
<text transform="matrix(-0.6734 -0.7393 0.7393 -0.6734 307.7654 123.6131)" class="st0 st1">i</text>
<text transform="matrix(-0.8857 -0.4642 0.4642 -0.8857 301.5057 116.6329)" class="st0 st1">n</text>
<text transform="matrix(-0.999 -4.361939e-02 4.361939e-02 -0.999 280.1456 108.4126)" class="st0 st1">p</text>
<text transform="matrix(-0.9933 0.1153 -0.1153 -0.9933 264.8663 108.2021)" class="st0 st1">i</text>
<text transform="matrix(-0.9641 0.2656 -0.2656 -0.9641 257.6853 108.9022)" class="st0 st1">e</text>
<text transform="matrix(-0.8852 0.4653 -0.4653 -0.8852 244.0456 113.082)" class="st0 st1">r</text>
<text transform="matrix(-0.6747 0.7381 -0.7381 -0.6747 233.7452 118.5425)" class="st0 st1">n</text>
<text transform="matrix(-0.378 0.9258 -0.9258 -0.378 223.406 131.9322)" class="st0 st1">a</text>
<text transform="matrix(-0.2741 0.9617 -0.9617 -0.2741 218.7348 143.7424)" class="st0 st1">s</text>
<text transform="matrix(-0.2183 0.9759 -0.9759 -0.2183 216.1266 153.2025)" class="st0 st1">,</text>
<text transform="matrix(-0.1271 0.9919 -0.9919 -0.1271 213.8355 163.9625)" class="st0 st1">p</text>
<text transform="matrix(-6.609976e-02 0.9978 -0.9978 -6.609976e-02 212.0855 178.1424)" class="st0 st1">e</text>
<text transform="matrix(-2.861948e-02 0.9996 -0.9996 -2.861948e-02 211.3164 190.5125)" class="st0 st1">r</text>
<text transform="matrix(3.665167e-03 1 -1 3.665167e-03 211.0448 198.4624)" class="st0 st1">o</text>
<text transform="matrix(4.710640e-02 0.9989 -0.9989 4.710640e-02 211.2451 216.7325)" class="st0 st1">q</text>
<text transform="matrix(7.080104e-02 0.9975 -0.9975 7.080104e-02 211.8849 230.1424)" class="st0 st1">u</text>
<text transform="matrix(8.785121e-02 0.9961 -0.9961 8.785121e-02 212.8248 243.2924)" class="st0 st1">e</text>
<text transform="matrix(0.1028 0.9947 -0.9947 0.1028 214.3764 260.2424)" class="st0 st1">c</text>
<text transform="matrix(0.108 0.9942 -0.9942 0.108 215.4848 270.9525)" class="st0 st1">a</text>
<text transform="matrix(0.1061 0.9944 -0.9944 0.1061 216.7552 282.4424)" class="st0 st1">m</text>
<text transform="matrix(9.254433e-02 0.9957 -0.9957 9.254433e-02 218.8363 302.2725)" class="st0 st1">i</text>
<text transform="matrix(6.975647e-02 0.9976 -0.9976 6.975647e-02 219.4065 307.7924)" class="st0 st1">n</text>
<text transform="matrix(1.919872e-03 1 -1 1.919872e-03 220.3665 320.7924)" class="st0 st1">a</text>
<text transform="matrix(-0.1097 0.994 -0.994 -0.1097 220.295 331.9224)" class="st0 st1">,</text>
<text transform="matrix(-0.5495 0.8355 -0.8355 -0.5495 219.2652 340.0625)" class="st0 st1">¡</text>
<text transform="matrix(-0.998 -6.383568e-02 6.383568e-02 -0.998 219.6661 345.1619)" class="st0 st1">o</text>
<text transform="matrix(-0.7633 -0.646 0.646 -0.7633 209.186 343.8931)" class="st0 st1">y</text>
<text transform="matrix(-0.7261 -0.6876 0.6876 -0.7261 201.0259 336.6622)" class="st0 st1">e</text>
<text transform="matrix(-0.7925 -0.6099 0.6099 -0.7925 191.4655 327.7827)" class="st0 st1">!</text>
<text transform="matrix(-0.9811 -0.1937 0.1937 -0.9811 178.376 319.6321)" class="st0 st1">-</text>
<text transform="matrix(-0.9007 0.4344 -0.4344 -0.9007 159.2959 319.5829)" class="st0 st1">J</text>
<text transform="matrix(-0.5573 0.8303 -0.8303 -0.5573 146.9365 327.0824)" class="st0 st1">e</text>
<text transform="matrix(-0.3419 0.9398 -0.9398 -0.3419 137.4053 344.1527)" class="st0 st1">s</text>
<text transform="matrix(-0.331 0.9436 -0.9436 -0.331 134.1648 353.2526)" class="st0 st1">u</text>
<text transform="matrix(-8.506908e-02 0.9964 -0.9964 -8.506908e-02 129.8658 368.3325)" class="st0 st1">i</text>
<text transform="matrix(5.235774e-04 1 -1 5.235774e-04 129.3061 374.7924)" class="st0 st1">s</text>
<text transform="matrix(9.132778e-02 0.9958 -0.9958 9.132778e-02 129.6357 390.3024)" class="st0 st1">c</text>
<text transform="matrix(0.1324 0.9912 -0.9912 0.1324 130.6456 401.2825)" class="st0 st1">e</text>
<text transform="matrix(0.1855 0.9826 -0.9826 0.1855 133.1157 418.7825)" class="st0 st1">q</text>
<text transform="matrix(-0.7676 0.6409 -0.6409 -0.7676 127.9153 430.1927)" class="st0 st1">u</text>
<text transform="matrix(-0.4083 0.9128 -0.9128 -0.4083 115.3451 443.0025)" class="st0 st1">e</text>
<text transform="matrix(-0.1683 0.9857 -0.9857 -0.1683 108.1346 461.3424)" class="st0 st1">m</text>
<text transform="matrix(-7.289007e-02 0.9973 -0.9973 -7.289007e-02 104.8765 482.0624)" class="st0 st1">o</text>
<text transform="matrix(-1.954649e-02 0.9998 -0.9998 -1.954649e-02 103.9065 495.7525)" class="st0 st1">n</text>
<text transform="matrix(3.769025e-02 0.9993 -0.9993 3.769025e-02 103.7149 514.7424)" class="st0 st1">p</text>
<text transform="matrix(6.958233e-02 0.9976 -0.9976 6.958233e-02 104.246 528.4025)" class="st0 st1">è</text>
<text transform="matrix(9.184916e-02 0.9958 -0.9958 9.184916e-02 105.0962 540.3224)" class="st0 st1">r</text>
<text transform="matrix(0.1125 0.9937 -0.9937 0.1125 105.7665 547.8124)" class="st0 st1">e</text>
<text transform="matrix(0.1563 0.9877 -0.9877 0.1563 107.686 564.6425)" class="st0 st1">m</text>
<text transform="matrix(0.1828 0.9832 -0.9832 0.1828 110.8756 584.1224)" class="st0 st1">&apos;</text>
<text transform="matrix(0.2023 0.9793 -0.9793 0.2023 111.666 588.6124)" class="st0 st1">a</text>
<text transform="matrix(0.329 0.9443 -0.9443 0.329 115.5455 606.1425)" class="st0 st1">a</text>
<text transform="matrix(0.4474 0.8943 -0.8943 0.4474 119.796 618.3124)" class="st0 st1">p</text>
<text transform="matrix(0.5655 0.8247 -0.8247 0.5655 126.6359 631.7424)" class="st0 st1">p</text>
<text transform="matrix(0.6401 0.7683 -0.7683 0.6401 135.0561 643.6725)" class="st0 st1">r</text>
<text transform="matrix(0.6766 0.7363 -0.7363 0.6766 140.5055 650.1324)" class="st0 st1">i</text>
<text transform="matrix(0.7062 0.708 -0.708 0.7062 144.5555 654.5823)" class="st0 st1">s</text>
<text transform="matrix(0.731 0.6824 -0.6824 0.731 155.1159 664.9224)" class="st0 st1">C</text>
<text transform="matrix(0.7066 0.7076 -0.7076 0.7066 165.0459 674.1124)" class="st0 st1">e</text>
<text transform="matrix(0.6587 0.7524 -0.7524 0.6587 173.2852 682.4724)" class="st0 st1">l</text>
<text transform="matrix(0.567 0.8237 -0.8237 0.567 176.9659 686.2324)" class="st0 st1">u</text>
<text transform="matrix(0.4258 0.9048 -0.9048 0.4258 183.896 696.7025)" class="st0 st1">i</text>
<text transform="matrix(0.1349 0.9909 -0.9909 0.1349 187.9962 705.3824)" class="st0 st1">q</text>
<text transform="matrix(2.094237e-02 0.9998 -0.9998 2.094237e-02 189.3559 718.3624)" class="st0 st1">u</text>
<text transform="matrix(1.535825e-02 0.9999 -0.9999 1.535825e-02 189.6253 731.5524)" class="st0 st1">i</text>
<text transform="matrix(7.504851e-03 1 -1 7.504851e-03 189.7854 742.2325)" class="st0 st1">n</text>
<text transform="matrix(2.967024e-03 1 -1 2.967024e-03 189.8759 755.3525)" class="st0 st1">&apos;</text>
<text transform="matrix(-1.221725e-03 1 -1 -1.221725e-03 189.8949 759.8524)" class="st0 st1">a</text>
<text transform="matrix(-5.410451e-03 1 -1 -5.410451e-03 189.8756 771.4025)" class="st0 st1">i</text>
<text transform="matrix(-1.169341e-02 0.9999 -0.9999 -1.169341e-02 189.8652 776.9925)" class="st0 st1">m</text>
<text transform="matrix(-1.954649e-02 0.9998 -0.9998 -1.954649e-02 189.6155 796.9824)" class="st0 st1">e</text>
<text transform="matrix(-2.844498e-02 0.9996 -0.9996 -2.844498e-02 189.2656 814.0425)" class="st0 st1">p</text>
<text transform="matrix(-3.577167e-02 0.9994 -0.9994 -3.577167e-02 188.8754 827.6825)" class="st0 st1">a</text>
<text transform="matrix(-4.449126e-02 0.999 -0.999 -4.449126e-02 188.4649 838.9824)" class="st0 st1">s</text>
<text transform="matrix(-0.9894 -0.145 0.145 -0.9894 181.6958 845.2333)" class="st0 st1">s</text>
<text transform="matrix(-0.9617 -0.2741 0.2741 -0.9617 172.7754 844.0624)" class="st0 st1">o</text>
<text transform="matrix(-0.9163 -0.4005 0.4005 -0.9163 160.5959 840.6126)" class="st0 st1">n</text>
<text transform="matrix(-0.8417 -0.5399 0.5399 -0.8417 144.4452 833.1234)" class="st0 st1">p</text>
<text transform="matrix(-0.7893 -0.614 0.614 -0.7893 133.2757 825.9021)" class="st0 st1">a</text>
<text transform="matrix(-0.7434 -0.6689 0.6689 -0.7434 124.5353 819.1128)" class="st0 st1">y</text>
<text transform="matrix(-0.7025 -0.7117 0.7117 -0.7025 116.4356 811.7933)" class="st0 st1">s</text>
<text transform="matrix(-0.64 -0.7684 0.7684 -0.64 106.5057 801.5415)" class="st0 st1">n</text>
<text transform="matrix(-0.6085 -0.7936 0.7936 -0.6085 98.2458 791.5018)" class="st0 st1">&apos;</text>
<text transform="matrix(-0.5806 -0.8142 0.8142 -0.5806 95.5355 788.0628)" class="st0 st1">a</text>
<text transform="matrix(-0.5521 -0.8338 0.8338 -0.5521 88.9457 778.7425)" class="st0 st1">i</text>
<text transform="matrix(-0.5114 -0.8593 0.8593 -0.5114 85.8154 774.3126)" class="st0 st1">m</text>
<text transform="matrix(-0.4641 -0.8858 0.8858 -0.4641 75.7754 757.2418)" class="st0 st1">e</text>
<text transform="matrix(-0.4152 -0.9097 0.9097 -0.4152 68.0356 742.2029)" class="st0 st1">p</text>
<text transform="matrix(-0.3832 -0.9237 0.9237 -0.3832 62.4457 729.9022)" class="st0 st1">a</text>
<text transform="matrix(-0.3579 -0.9338 0.9338 -0.3579 58.0657 719.3226)" class="st0 st1">s</text>
<text transform="matrix(-0.3247 -0.9458 0.9458 -0.3247 52.9857 705.8015)" class="st0 st1">s</text>
<text transform="matrix(-0.302 -0.9533 0.9533 -0.302 49.9155 696.8918)" class="st0 st1">a</text>
<text transform="matrix(-0.2602 -0.9656 0.9656 -0.2602 44.9556 681.1924)" class="st0 st1">m</text>
<text transform="matrix(-0.2304 -0.9731 0.9731 -0.2304 39.8356 661.942)" class="st0 st1">è</text>
<text transform="matrix(-0.2129 -0.9771 0.9771 -0.2129 37.1058 650.3134)" class="st0 st1">r</text>
<text transform="matrix(-0.1965 -0.9805 0.9805 -0.1965 35.4757 642.9415)" class="st0 st1">e</text>
<text transform="matrix(-0.1714 -0.9852 0.9852 -0.1714 32.2257 626.2626)" class="st0 st1">J</text>
<text transform="matrix(-0.1554 -0.9879 0.9879 -0.1554 30.6956 617.5718)" class="st0 st1">e</text>
<text transform="matrix(-0.1321 -0.9912 0.9912 -0.1321 28.1256 600.7516)" class="st0 st1">s</text>
<text transform="matrix(-0.1163 -0.9932 0.9932 -0.1163 26.8657 591.4034)" class="st0 st1">u</text>
<text transform="matrix(-0.1037 -0.9946 0.9946 -0.1037 25.3557 578.3133)" class="st0 st1">i</text>
<text transform="matrix(-9.393454e-02 -0.9956 0.9956 -9.393454e-02 24.7656 572.7727)" class="st0 st1">s</text>
<text transform="matrix(-7.793712e-02 -0.997 0.997 -7.793712e-02 23.4657 558.2923)" class="st0 st1">l</text>
<text transform="matrix(-7.167154e-02 -0.9974 0.9974 -7.167154e-02 23.0256 552.6724)" class="st0 st1">&apos;</text>
<text transform="matrix(-6.191961e-02 -0.9981 0.9981 -6.191961e-02 22.7756 549.6624)" class="st0 st1">A</text>
<text transform="matrix(-4.222438e-02 -0.9991 0.9991 -4.222438e-02 21.8457 535.172)" class="st0 st1">m</text>
<text transform="matrix(-2.478111e-02 -0.9997 0.9997 -2.478111e-02 21.0457 515.2321)" class="st0 st1">é</text>
<text transform="matrix(-1.431121e-02 -0.9999 0.9999 -1.431121e-02 20.7556 503.2522)" class="st0 st1">r</text>
<text transform="matrix(-7.330285e-03 -1 1 -7.330285e-03 20.6556 495.3421)" class="st0 st1">i</text>
<text transform="matrix(2.094442e-03 -1 1 2.094442e-03 20.5957 489.7524)" class="st0 st1">q</text>
<text transform="matrix(1.500928e-02 -0.9999 0.9999 1.500928e-02 20.6157 476.302)" class="st0 st1">u</text>
<text transform="matrix(2.670034e-02 -0.9996 0.9996 2.670034e-02 20.8257 463.1323)" class="st0 st1">e</text>
<text transform="matrix(3.908538e-02 -0.9992 0.9992 3.908538e-02 21.3257 446.0722)" class="st0 st1">l</text>
<text transform="matrix(4.658340e-02 -0.9989 0.9989 4.658340e-02 21.5356 440.4526)" class="st0 st1">a</text>
<text transform="matrix(5.460159e-02 -0.9985 0.9985 5.460159e-02 22.0757 429.0223)" class="st0 st1">t</text>
<text transform="matrix(6.017743e-02 -0.9982 0.9982 6.017743e-02 22.5156 421.1025)" class="st0 st1">i</text>
<text transform="matrix(6.035168e-02 -0.9982 0.9982 6.035168e-02 22.8756 415.5823)" class="st0 st1">n</text>
<text transform="matrix(8.698183e-02 -0.9962 0.9962 8.698183e-02 23.7157 402.3127)" class="st0 st1">e</text>
</svg>
